<svg width="130" height="28" viewBox="0 0 130 28" fill="none" xmlns="http://www.w3.org/2000/svg">
<path d="M6.14355 0.73291V27H0.794434V0.73291H6.14355ZM17.8843 8.50879L9.83496 17.8057L5.57959 22.0781L3.44336 18.4722L6.89551 14.0117L11.4585 8.50879H17.8843ZM12.2446 27L7.03223 18.5063L10.8604 15.5156L18.3628 27H12.2446ZM20.7034 24.4707C20.7034 23.696 20.9769 23.0465 21.5237 22.5225C22.082 21.9984 22.8055 21.7363 23.6941 21.7363C24.5942 21.7363 25.312 21.9984 25.8475 22.5225C26.3943 23.0465 26.6678 23.696 26.6678 24.4707C26.6678 25.234 26.3943 25.8778 25.8475 26.4019C25.312 26.9259 24.5942 27.188 23.6941 27.188C22.8055 27.188 22.082 26.9259 21.5237 26.4019C20.9769 25.8778 20.7034 25.234 20.7034 24.4707ZM36.8526 12.3882V27H31.5206V8.50879H36.5279L36.8526 12.3882ZM36.169 17.105L34.8189 17.1392C34.8189 15.8403 34.9728 14.6497 35.2804 13.5674C35.5994 12.4736 36.0608 11.5223 36.6646 10.7134C37.2685 9.90446 38.0147 9.27783 38.9034 8.8335C39.8035 8.38916 40.8403 8.16699 42.0138 8.16699C42.8341 8.16699 43.5803 8.29232 44.2525 8.54297C44.9247 8.78223 45.5001 9.1639 45.9786 9.68799C46.4685 10.2007 46.8445 10.8729 47.1065 11.7046C47.3686 12.5249 47.4996 13.5104 47.4996 14.6611V27H42.1676V15.3105C42.1676 14.4902 42.065 13.8693 41.86 13.4478C41.6663 13.0148 41.3814 12.7186 41.0055 12.5591C40.6295 12.3996 40.1795 12.3198 39.6554 12.3198C39.0857 12.3198 38.5787 12.4451 38.1344 12.6958C37.7014 12.9351 37.3368 13.2712 37.0406 13.7041C36.7444 14.137 36.5222 14.644 36.3741 15.2251C36.2374 15.8062 36.169 16.4328 36.169 17.105ZM46.9527 16.8315L45.2608 16.9683C45.2608 15.715 45.409 14.5529 45.7052 13.4819C46.0014 12.411 46.4457 11.4824 47.0382 10.6963C47.6306 9.89876 48.3655 9.27783 49.2428 8.8335C50.1314 8.38916 51.1625 8.16699 52.336 8.16699C53.2019 8.16699 53.9881 8.29232 54.6944 8.54297C55.4122 8.79362 56.0274 9.19808 56.5401 9.75635C57.0642 10.3146 57.4687 11.0495 57.7535 11.9609C58.0383 12.861 58.1808 13.9661 58.1808 15.2764V27H52.8146V15.2764C52.8146 14.4674 52.712 13.8522 52.5069 13.4307C52.3132 13.0091 52.0284 12.7186 51.6524 12.5591C51.2879 12.3996 50.8492 12.3198 50.3365 12.3198C49.7669 12.3198 49.2713 12.4395 48.8497 12.6787C48.4282 12.9066 48.075 13.2256 47.7901 13.6357C47.5053 14.0345 47.2945 14.5073 47.1578 15.0542C47.0211 15.6011 46.9527 16.1935 46.9527 16.8315ZM71.1684 27.3418C69.6986 27.3418 68.3827 27.1082 67.2206 26.6411C66.0585 26.174 65.073 25.5303 64.2641 24.71C63.4665 23.8783 62.857 22.9212 62.4354 21.8389C62.0139 20.7565 61.8031 19.6001 61.8031 18.3696V17.7202C61.8031 16.3416 61.9968 15.0713 62.3842 13.9092C62.7715 12.7471 63.3355 11.7388 64.0761 10.8843C64.828 10.0184 65.7509 9.35189 66.8446 8.88477C67.9384 8.40625 69.1859 8.16699 70.5873 8.16699C71.8975 8.16699 73.0653 8.38346 74.0907 8.81641C75.1161 9.23796 75.982 9.84749 76.6884 10.645C77.3948 11.4312 77.9302 12.3825 78.2948 13.499C78.6708 14.6042 78.8588 15.846 78.8588 17.2246V19.4121H63.9564V15.9771H73.6293V15.5669C73.6293 14.9175 73.5097 14.3478 73.2704 13.8579C73.0425 13.368 72.7007 12.992 72.245 12.73C71.8007 12.4565 71.2367 12.3198 70.5531 12.3198C69.9037 12.3198 69.3625 12.4565 68.9296 12.73C68.4966 13.0034 68.1492 13.3908 67.8871 13.8921C67.6365 14.382 67.4542 14.9574 67.3402 15.6182C67.2263 16.2676 67.1693 16.9683 67.1693 17.7202V18.3696C67.1693 19.0874 67.2662 19.7425 67.4599 20.335C67.6535 20.9274 67.9384 21.4344 68.3144 21.856C68.6903 22.2775 69.1461 22.6079 69.6815 22.8472C70.217 23.0864 70.8266 23.2061 71.5102 23.2061C72.3533 23.2061 73.1565 23.0465 73.9198 22.7275C74.6832 22.3971 75.344 21.8844 75.9022 21.1895L78.3974 24.0435C78.0214 24.5903 77.4916 25.1201 76.808 25.6328C76.1358 26.1341 75.3269 26.5443 74.3812 26.8633C73.4356 27.1823 72.3646 27.3418 71.1684 27.3418ZM87.5056 12.3882V27H82.1735V8.50879H87.1809L87.5056 12.3882ZM86.822 17.105L85.4719 17.1392C85.4719 15.8403 85.6257 14.6497 85.9333 13.5674C86.2523 12.4736 86.7137 11.5223 87.3176 10.7134C87.9214 9.90446 88.6677 9.27783 89.5564 8.8335C90.4564 8.38916 91.4932 8.16699 92.6667 8.16699C93.487 8.16699 94.2333 8.29232 94.9055 8.54297C95.5777 8.78223 96.153 9.1639 96.6315 9.68799C97.1215 10.2007 97.4974 10.8729 97.7595 11.7046C98.0215 12.5249 98.1525 13.5104 98.1525 14.6611V27H92.8205V15.3105C92.8205 14.4902 92.718 13.8693 92.5129 13.4478C92.3192 13.0148 92.0344 12.7186 91.6584 12.5591C91.2824 12.3996 90.8324 12.3198 90.3083 12.3198C89.7386 12.3198 89.2316 12.4451 88.7873 12.6958C88.3544 12.9351 87.9898 13.2712 87.6936 13.7041C87.3973 14.137 87.1752 14.644 87.0271 15.2251C86.8903 15.8062 86.822 16.4328 86.822 17.105ZM97.6057 16.8315L95.9138 16.9683C95.9138 15.715 96.0619 14.5529 96.3581 13.4819C96.6543 12.411 97.0987 11.4824 97.6911 10.6963C98.2836 9.89876 99.0184 9.27783 99.8957 8.8335C100.784 8.38916 101.815 8.16699 102.989 8.16699C103.855 8.16699 104.641 8.29232 105.347 8.54297C106.065 8.79362 106.68 9.19808 107.193 9.75635C107.717 10.3146 108.122 11.0495 108.406 11.9609C108.691 12.861 108.834 13.9661 108.834 15.2764V27H103.467V15.2764C103.467 14.4674 103.365 13.8522 103.16 13.4307C102.966 13.0091 102.681 12.7186 102.305 12.5591C101.941 12.3996 101.502 12.3198 100.989 12.3198C100.42 12.3198 99.9242 12.4395 99.5026 12.6787C99.0811 12.9066 98.7279 13.2256 98.4431 13.6357C98.1582 14.0345 97.9475 14.5073 97.8107 15.0542C97.674 15.6011 97.6057 16.1935 97.6057 16.8315ZM121.821 27.3418C120.352 27.3418 119.036 27.1082 117.874 26.6411C116.711 26.174 115.726 25.5303 114.917 24.71C114.119 23.8783 113.51 22.9212 113.088 21.8389C112.667 20.7565 112.456 19.6001 112.456 18.3696V17.7202C112.456 16.3416 112.65 15.0713 113.037 13.9092C113.424 12.7471 113.988 11.7388 114.729 10.8843C115.481 10.0184 116.404 9.35189 117.498 8.88477C118.591 8.40625 119.839 8.16699 121.24 8.16699C122.55 8.16699 123.718 8.38346 124.744 8.81641C125.769 9.23796 126.635 9.84749 127.341 10.645C128.048 11.4312 128.583 12.3825 128.948 13.499C129.324 14.6042 129.512 15.846 129.512 17.2246V19.4121H114.609V15.9771H124.282V15.5669C124.282 14.9175 124.163 14.3478 123.923 13.8579C123.695 13.368 123.354 12.992 122.898 12.73C122.454 12.4565 121.89 12.3198 121.206 12.3198C120.557 12.3198 120.015 12.4565 119.583 12.73C119.15 13.0034 118.802 13.3908 118.54 13.8921C118.289 14.382 118.107 14.9574 117.993 15.6182C117.879 16.2676 117.822 16.9683 117.822 17.7202V18.3696C117.822 19.0874 117.919 19.7425 118.113 20.335C118.306 20.9274 118.591 21.4344 118.967 21.856C119.343 22.2775 119.799 22.6079 120.334 22.8472C120.87 23.0864 121.479 23.2061 122.163 23.2061C123.006 23.2061 123.809 23.0465 124.573 22.7275C125.336 22.3971 125.997 21.8844 126.555 21.1895L129.05 24.0435C128.674 24.5903 128.145 25.1201 127.461 25.6328C126.789 26.1341 125.98 26.5443 125.034 26.8633C124.089 27.1823 123.018 27.3418 121.821 27.3418Z" fill="white"/>
</svg>
